<?xml version="1.0" standalone="no"?>
<!DOCTYPE svg PUBLIC "-//W3C//DTD SVG 20010904//EN"
 "http://www.w3.org/TR/2001/REC-SVG-20010904/DTD/svg10.dtd">
<svg version="1.0" xmlns="http://www.w3.org/2000/svg"
 width="200.000000pt" height="200.000000pt" viewBox="0 0 200.000000 150.000000"
 preserveAspectRatio="xMidYMid meet">
<metadata>
Created by potrace 1.10, written by Peter Selinger 2001-2011
</metadata>
<g transform="translate(0.000000,200.000000) scale(0.10000,-0.120000)"
fill="#ea4242" stroke="none">
<path d="M1050 1452 l-65 -3 -54 -174 c-30 -96 -58 -172 -63 -169 -4 3 -8 11
-8 19 0 8 -23 84 -50 170 l-51 155 -68 0 -68 0 91 -242 92 -243 63 0 64 0 54
140 c29 77 72 186 94 243 23 57 39 104 37 105 -1 1 -32 1 -68 -1z m-298 -61
c6 -14 14 -35 19 -46 4 -11 22 -66 39 -122 17 -57 39 -112 49 -124 27 -33 29
-28 102 199 l42 132 36 -6 c46 -8 47 -9 34 -37 -6 -12 -26 -62 -44 -112 -18
-49 -35 -94 -39 -100 -3 -5 -22 -52 -40 -102 l-34 -93 -47 0 -46 0 -35 93
c-20 50 -39 103 -43 117 -4 14 -11 30 -15 35 -4 6 -10 23 -14 40 -4 16 -16 48
-26 70 -10 22 -21 52 -25 66 -6 24 -4 24 35 21 34 -3 43 -9 52 -31z"/>
<path d="M1460 1437 c-57 -30 -83 -77 -77 -140 6 -65 39 -99 133 -133 84 -30
99 -43 90 -79 -12 -49 -97 -56 -152 -13 l-25 21 -39 -38 -39 -38 22 -17 c86
-67 226 -73 298 -13 61 51 77 129 39 191 -20 32 -105 82 -141 82 -24 0 -69 39
-69 60 0 9 7 23 15 30 22 18 90 16 121 -5 26 -17 27 -17 62 18 40 40 37 51
-22 78 -60 27 -160 26 -216 -4z m240 -33 c0 -3 -9 -14 -19 -26 -19 -20 -21
-20 -61 -4 -22 9 -49 16 -59 16 -29 0 -81 -48 -81 -75 0 -26 51 -75 78 -75 22
0 99 -35 116 -52 27 -27 34 -53 26 -98 -11 -66 -17 -75 -64 -98 -49 -25 -126
-29 -187 -11 -42 13 -54 31 -39 60 13 23 19 24 47 4 12 -8 42 -18 67 -21 42
-6 49 -4 76 25 55 57 37 86 -83 136 -71 30 -88 42 -101 70 -20 42 -20 68 0
111 30 63 135 91 227 61 31 -10 57 -21 57 -23z"/>
<path d="M1795 1440 c-38 -42 14 -102 56 -64 25 23 24 49 -3 68 -29 20 -31 20
-53 -4z m55 -16 c11 -12 11 -18 -2 -31 -20 -19 -58 -9 -58 17 0 30 40 40 60
14z"/>
<path d="M1811 1414 c-1 -12 5 -21 14 -21 9 0 15 9 15 21 0 16 -2 18 -9 7 -7
-11 -9 -11 -14 0 -3 9 -6 6 -6 -7z"/>
<path d="M275 1218 c-54 -128 -103 -239 -108 -246 -8 -10 4 -12 63 -10 l72 3
17 43 16 44 95 0 95 0 19 -46 18 -46 69 0 68 0 -38 88 c-21 48 -66 158 -101
245 l-64 157 -62 0 -61 0 -98 -232z m185 203 c18 -1 29 -9 37 -28 6 -16 45
-113 87 -217 42 -104 76 -190 76 -192 0 -2 -18 -4 -41 -4 -36 0 -41 3 -54 33
-25 60 -41 67 -143 64 -50 -1 -93 -5 -95 -7 -3 -3 -14 -24 -26 -47 -20 -40
-24 -43 -61 -43 -45 0 -47 -15 13 130 33 81 100 235 126 291 9 17 19 25 34 23
12 -1 33 -3 47 -3z"/>
<path d="M404 1298 c-34 -65 -55 -140 -43 -155 13 -15 115 -18 138 -4 23 15
-40 191 -69 191 -5 0 -17 -14 -26 -32z m53 -50 c12 -35 25 -71 28 -80 6 -16 0
-18 -55 -18 -45 0 -60 3 -57 13 3 6 16 42 28 80 13 37 25 67 29 67 3 0 15 -28
27 -62z"/>
<path d="M1165 1205 l0 -245 63 0 62 0 0 245 0 245 -62 0 -63 0 0 -245z m96
193 c1 -32 1 -302 0 -365 l-1 -53 -35 0 -35 0 0 220 0 220 35 0 c29 0 35 -4
36 -22z"/>
<path d="M200 688 c0 -89 3 -108 15 -108 11 0 15 12 15 50 0 41 3 50 18 50 26
0 57 -25 82 -65 13 -21 30 -35 42 -35 18 0 16 5 -16 50 -20 28 -32 50 -27 50
34 0 55 76 29 98 -7 6 -46 12 -86 14 l-72 3 0 -107z m124 76 c19 -7 21 -35 4
-52 -7 -7 -31 -12 -55 -12 -42 0 -43 0 -43 35 0 34 1 35 39 35 22 0 46 -3 55
-6z"/>
<path d="M793 783 c-7 -3 -13 -13 -13 -23 0 -10 -6 -21 -12 -24 -10 -5 -10 -7
0 -12 7 -3 12 -26 12 -59 0 -69 7 -85 36 -85 27 0 32 15 9 24 -11 4 -15 21
-15 62 0 46 3 55 15 50 9 -3 15 0 15 9 0 8 -6 15 -14 15 -8 0 -16 11 -18 23
-2 14 -8 22 -15 20z"/>
<path d="M1318 766 c-21 -7 -49 -21 -63 -30 -13 -9 -35 -16 -49 -16 -29 0 -43
-15 -21 -24 19 -7 20 -36 0 -36 -9 0 -12 6 -9 15 4 8 2 15 -3 15 -5 0 -10 -25
-11 -55 -1 -52 0 -55 26 -61 56 -12 67 -17 85 -35 23 -24 52 -24 84 1 23 18
41 20 158 20 104 0 135 -3 145 -15 20 -25 50 -28 72 -8 11 10 36 23 57 28 30
9 36 15 39 41 5 50 -23 73 -103 86 -51 8 -85 21 -124 47 -52 34 -59 36 -150
39 -63 1 -109 -3 -133 -12z m132 -8 c0 -7 3 -24 7 -37 6 -23 6 -23 -63 -18
-38 4 -72 7 -76 7 -17 0 -7 27 15 38 42 21 117 27 117 10z m112 -14 c17 -9 25
-19 22 -31 -4 -15 -14 -17 -50 -14 -37 2 -47 8 -55 28 -5 13 -9 28 -9 33 0 12
56 2 92 -16z m-254 -59 c24 -38 42 -44 62 -20 17 20 79 19 102 -2 15 -13 23
-14 44 -5 13 7 32 12 41 12 9 0 24 7 33 15 14 12 21 12 60 0 25 -8 57 -17 71
-20 16 -3 29 -13 32 -25 3 -11 15 -24 28 -28 15 -6 18 -11 11 -16 -7 -4 -26 7
-46 29 -39 41 -56 39 -96 -12 -22 -28 -22 -28 -148 -28 -94 0 -126 3 -130 13
-6 20 -44 52 -60 52 -8 0 -26 -13 -41 -29 -21 -22 -33 -28 -54 -24 -15 3 -27
8 -27 12 0 20 43 87 63 98 30 17 29 17 55 -22z m52 -5 c0 -5 -7 -10 -15 -10
-8 0 -15 5 -15 10 0 6 7 10 15 10 8 0 15 -4 15 -10z m147 -6 c-3 -3 -12 -4
-19 -1 -8 3 -5 6 6 6 11 1 17 -2 13 -5z m300 -30 c2 -5 -6 -10 -17 -10 -20 0
-25 7 -13 20 9 8 26 3 30 -10z m-76 -38 c8 -17 8 -29 -1 -45 -13 -26 -37 -24
-56 4 -12 18 -11 24 2 43 20 29 42 28 55 -2z m-391 -1 c7 -9 10 -25 6 -41 -5
-20 -12 -25 -34 -22 -28 3 -40 32 -28 64 7 18 40 18 56 -1z"/>
<path d="M1361 734 c0 -11 3 -14 6 -6 3 7 2 16 -1 19 -3 4 -6 -2 -5 -13z"/>
<path d="M440 722 c-29 -23 -32 -93 -5 -122 24 -26 86 -27 108 -2 10 10 17 22
17 25 0 13 -27 7 -40 -8 -16 -19 -44 -19 -64 1 -27 27 -18 34 44 34 52 0 60 3
60 19 0 10 -9 30 -21 45 -24 31 -66 35 -99 8z m74 -18 c26 -25 19 -34 -29 -34
-49 0 -53 4 -28 32 20 22 37 23 57 2z"/>
<path d="M600 660 c0 -64 3 -80 15 -80 12 0 15 13 15 60 0 65 17 88 52 69 14
-8 18 -22 18 -69 0 -47 3 -60 15 -60 24 0 21 121 -3 143 -21 19 -45 21 -73 7
-13 -7 -19 -7 -19 0 0 5 -4 10 -10 10 -6 0 -10 -33 -10 -80z"/>
<path d="M972 724 c-23 -16 -29 -34 -11 -34 6 0 17 7 25 15 20 19 39 19 59 -1
19 -20 6 -34 -33 -34 -50 0 -81 -35 -62 -71 12 -21 59 -26 91 -9 13 7 19 7 19
0 0 -5 6 -10 13 -10 18 0 7 138 -13 150 -23 15 -63 12 -88 -6z m75 -97 c-17
-26 -62 -35 -70 -13 -7 18 10 33 43 38 36 6 43 -1 27 -25z"/>
</g>
</svg>
